<mxfile host="65bd71144e" pages="4">
    <diagram id="C5RBs43oDa-KdzZeNtuy" name="Main">
        <mxGraphModel dx="1407" dy="804" grid="1" gridSize="10" guides="1" tooltips="1" connect="1" arrows="1" fold="1" page="1" pageScale="1" pageWidth="827" pageHeight="1169" math="0" shadow="0">
            <root>
                <mxCell id="WIyWlLk6GJQsqaUBKTNV-0"/>
                <mxCell id="WIyWlLk6GJQsqaUBKTNV-1" parent="WIyWlLk6GJQsqaUBKTNV-0"/>
                <mxCell id="AK25hRPnAM694gm7f50E-4" style="edgeStyle=orthogonalEdgeStyle;rounded=0;orthogonalLoop=1;jettySize=auto;html=1;entryX=0.5;entryY=0;entryDx=0;entryDy=0;exitX=0.5;exitY=1;exitDx=0;exitDy=0;" parent="WIyWlLk6GJQsqaUBKTNV-1" source="wDDcKwcGKZrJd7AMSk9I-0" target="AK25hRPnAM694gm7f50E-1" edge="1">
                    <mxGeometry relative="1" as="geometry">
                        <mxPoint x="404" y="160" as="sourcePoint"/>
                    </mxGeometry>
                </mxCell>
                <mxCell id="AK25hRPnAM694gm7f50E-5" style="edgeStyle=orthogonalEdgeStyle;rounded=0;orthogonalLoop=1;jettySize=auto;html=1;" parent="WIyWlLk6GJQsqaUBKTNV-1" source="AK25hRPnAM694gm7f50E-1" edge="1">
                    <mxGeometry relative="1" as="geometry">
                        <mxPoint x="404.0526315789475" y="290" as="targetPoint"/>
                    </mxGeometry>
                </mxCell>
                <mxCell id="AK25hRPnAM694gm7f50E-1" value="user[ 100 ]" style="rounded=0;whiteSpace=wrap;html=1;" parent="WIyWlLk6GJQsqaUBKTNV-1" vertex="1">
                    <mxGeometry x="344" y="200" width="120" height="60" as="geometry"/>
                </mxCell>
                <mxCell id="AK25hRPnAM694gm7f50E-22" style="edgeStyle=orthogonalEdgeStyle;rounded=0;orthogonalLoop=1;jettySize=auto;html=1;" parent="WIyWlLk6GJQsqaUBKTNV-1" target="AK25hRPnAM694gm7f50E-7" edge="1">
                    <mxGeometry relative="1" as="geometry">
                        <mxPoint x="404.0526315789475" y="350" as="sourcePoint"/>
                    </mxGeometry>
                </mxCell>
                <mxCell id="AK25hRPnAM694gm7f50E-30" style="edgeStyle=orthogonalEdgeStyle;rounded=0;orthogonalLoop=1;jettySize=auto;html=1;entryX=0.5;entryY=0;entryDx=0;entryDy=0;" parent="WIyWlLk6GJQsqaUBKTNV-1" source="AK25hRPnAM694gm7f50E-7" target="AK25hRPnAM694gm7f50E-29" edge="1">
                    <mxGeometry relative="1" as="geometry"/>
                </mxCell>
                <mxCell id="AK25hRPnAM694gm7f50E-7" value="i = 0" style="rounded=0;whiteSpace=wrap;html=1;" parent="WIyWlLk6GJQsqaUBKTNV-1" vertex="1">
                    <mxGeometry x="344" y="380" width="120" height="60" as="geometry"/>
                </mxCell>
                <mxCell id="AK25hRPnAM694gm7f50E-32" value="True" style="edgeStyle=orthogonalEdgeStyle;rounded=0;orthogonalLoop=1;jettySize=auto;html=1;" parent="WIyWlLk6GJQsqaUBKTNV-1" source="AK25hRPnAM694gm7f50E-9" target="AK25hRPnAM694gm7f50E-10" edge="1">
                    <mxGeometry relative="1" as="geometry"/>
                </mxCell>
                <mxCell id="AK25hRPnAM694gm7f50E-39" value="False" style="edgeStyle=orthogonalEdgeStyle;rounded=0;orthogonalLoop=1;jettySize=auto;html=1;exitX=1;exitY=0.5;exitDx=0;exitDy=0;" parent="WIyWlLk6GJQsqaUBKTNV-1" source="AK25hRPnAM694gm7f50E-9" target="AK25hRPnAM694gm7f50E-15" edge="1">
                    <mxGeometry x="-0.9108" relative="1" as="geometry">
                        <Array as="points">
                            <mxPoint x="554" y="560"/>
                            <mxPoint x="554" y="1100"/>
                            <mxPoint x="404" y="1100"/>
                        </Array>
                        <mxPoint as="offset"/>
                    </mxGeometry>
                </mxCell>
                <mxCell id="AK25hRPnAM694gm7f50E-9" value="i &amp;lt; count_data&amp;nbsp;?" style="rhombus;whiteSpace=wrap;html=1;" parent="WIyWlLk6GJQsqaUBKTNV-1" vertex="1">
                    <mxGeometry x="329" y="520" width="150" height="80" as="geometry"/>
                </mxCell>
                <mxCell id="AK25hRPnAM694gm7f50E-33" style="edgeStyle=orthogonalEdgeStyle;rounded=0;orthogonalLoop=1;jettySize=auto;html=1;" parent="WIyWlLk6GJQsqaUBKTNV-1" source="AK25hRPnAM694gm7f50E-10" target="AK25hRPnAM694gm7f50E-11" edge="1">
                    <mxGeometry relative="1" as="geometry"/>
                </mxCell>
                <mxCell id="AK25hRPnAM694gm7f50E-10" value="calculate_age&lt;br&gt;( user[], i )" style="shape=process;whiteSpace=wrap;html=1;backgroundOutline=1;" parent="WIyWlLk6GJQsqaUBKTNV-1" vertex="1">
                    <mxGeometry x="344" y="650" width="120" height="60" as="geometry"/>
                </mxCell>
                <mxCell id="AK25hRPnAM694gm7f50E-34" style="edgeStyle=orthogonalEdgeStyle;rounded=0;orthogonalLoop=1;jettySize=auto;html=1;entryX=0.5;entryY=0;entryDx=0;entryDy=0;" parent="WIyWlLk6GJQsqaUBKTNV-1" source="AK25hRPnAM694gm7f50E-11" target="AK25hRPnAM694gm7f50E-12" edge="1">
                    <mxGeometry relative="1" as="geometry"/>
                </mxCell>
                <mxCell id="AK25hRPnAM694gm7f50E-11" value="show &quot;user.[ i ].name&quot;" style="shape=parallelogram;perimeter=parallelogramPerimeter;whiteSpace=wrap;html=1;fixedSize=1;" parent="WIyWlLk6GJQsqaUBKTNV-1" vertex="1">
                    <mxGeometry x="311.5" y="740" width="185" height="60" as="geometry"/>
                </mxCell>
                <mxCell id="AK25hRPnAM694gm7f50E-35" style="edgeStyle=orthogonalEdgeStyle;rounded=0;orthogonalLoop=1;jettySize=auto;html=1;entryX=0.5;entryY=0;entryDx=0;entryDy=0;" parent="WIyWlLk6GJQsqaUBKTNV-1" source="AK25hRPnAM694gm7f50E-12" target="AK25hRPnAM694gm7f50E-13" edge="1">
                    <mxGeometry relative="1" as="geometry"/>
                </mxCell>
                <mxCell id="AK25hRPnAM694gm7f50E-12" value="show &quot;user.[ i ].years_old&quot;" style="shape=parallelogram;perimeter=parallelogramPerimeter;whiteSpace=wrap;html=1;fixedSize=1;" parent="WIyWlLk6GJQsqaUBKTNV-1" vertex="1">
                    <mxGeometry x="311.5" y="830" width="185" height="60" as="geometry"/>
                </mxCell>
                <mxCell id="AK25hRPnAM694gm7f50E-37" style="edgeStyle=orthogonalEdgeStyle;rounded=0;orthogonalLoop=1;jettySize=auto;html=1;entryX=0.5;entryY=0;entryDx=0;entryDy=0;" parent="WIyWlLk6GJQsqaUBKTNV-1" source="AK25hRPnAM694gm7f50E-13" target="AK25hRPnAM694gm7f50E-14" edge="1">
                    <mxGeometry relative="1" as="geometry"/>
                </mxCell>
                <mxCell id="AK25hRPnAM694gm7f50E-13" value="show &quot;user.[ i ].month&quot;" style="shape=parallelogram;perimeter=parallelogramPerimeter;whiteSpace=wrap;html=1;fixedSize=1;" parent="WIyWlLk6GJQsqaUBKTNV-1" vertex="1">
                    <mxGeometry x="311.5" y="920" width="185" height="60" as="geometry"/>
                </mxCell>
                <mxCell id="AK25hRPnAM694gm7f50E-38" style="edgeStyle=orthogonalEdgeStyle;rounded=0;orthogonalLoop=1;jettySize=auto;html=1;entryX=0;entryY=0.5;entryDx=0;entryDy=0;exitX=0;exitY=0.5;exitDx=0;exitDy=0;" parent="WIyWlLk6GJQsqaUBKTNV-1" source="AK25hRPnAM694gm7f50E-14" target="AK25hRPnAM694gm7f50E-29" edge="1">
                    <mxGeometry relative="1" as="geometry">
                        <mxPoint x="254" y="480" as="targetPoint"/>
                        <Array as="points">
                            <mxPoint x="274" y="1040"/>
                            <mxPoint x="274" y="480"/>
                        </Array>
                    </mxGeometry>
                </mxCell>
                <mxCell id="AK25hRPnAM694gm7f50E-14" value="i = i + 1" style="rounded=0;whiteSpace=wrap;html=1;" parent="WIyWlLk6GJQsqaUBKTNV-1" vertex="1">
                    <mxGeometry x="344" y="1010" width="120" height="60" as="geometry"/>
                </mxCell>
                <mxCell id="AK25hRPnAM694gm7f50E-41" style="edgeStyle=orthogonalEdgeStyle;rounded=0;orthogonalLoop=1;jettySize=auto;html=1;entryX=0.5;entryY=0;entryDx=0;entryDy=0;" parent="WIyWlLk6GJQsqaUBKTNV-1" source="AK25hRPnAM694gm7f50E-15" target="wDDcKwcGKZrJd7AMSk9I-1" edge="1">
                    <mxGeometry relative="1" as="geometry">
                        <mxPoint x="404" y="1230" as="targetPoint"/>
                    </mxGeometry>
                </mxCell>
                <mxCell id="AK25hRPnAM694gm7f50E-15" value="max_min_age_user&lt;br&gt;( user[], count_data )" style="shape=process;whiteSpace=wrap;html=1;backgroundOutline=1;" parent="WIyWlLk6GJQsqaUBKTNV-1" vertex="1">
                    <mxGeometry x="304" y="1140" width="200" height="60" as="geometry"/>
                </mxCell>
                <mxCell id="AK25hRPnAM694gm7f50E-31" style="edgeStyle=orthogonalEdgeStyle;rounded=0;orthogonalLoop=1;jettySize=auto;html=1;" parent="WIyWlLk6GJQsqaUBKTNV-1" source="AK25hRPnAM694gm7f50E-29" target="AK25hRPnAM694gm7f50E-9" edge="1">
                    <mxGeometry relative="1" as="geometry"/>
                </mxCell>
                <mxCell id="AK25hRPnAM694gm7f50E-29" value="" style="ellipse;whiteSpace=wrap;html=1;aspect=fixed;" parent="WIyWlLk6GJQsqaUBKTNV-1" vertex="1">
                    <mxGeometry x="394" y="470" width="20" height="20" as="geometry"/>
                </mxCell>
                <mxCell id="wDDcKwcGKZrJd7AMSk9I-0" value="Start" style="rounded=1;whiteSpace=wrap;html=1;arcSize=50;" parent="WIyWlLk6GJQsqaUBKTNV-1" vertex="1">
                    <mxGeometry x="344" y="100" width="120" height="60" as="geometry"/>
                </mxCell>
                <mxCell id="wDDcKwcGKZrJd7AMSk9I-1" value="End" style="rounded=1;whiteSpace=wrap;html=1;arcSize=50;" parent="WIyWlLk6GJQsqaUBKTNV-1" vertex="1">
                    <mxGeometry x="343.5" y="1240" width="120" height="60" as="geometry"/>
                </mxCell>
                <mxCell id="pyJH8Bek19j9a8iQdei3-0" value="count_data = read_file( user[] )" style="rounded=0;whiteSpace=wrap;html=1;" parent="WIyWlLk6GJQsqaUBKTNV-1" vertex="1">
                    <mxGeometry x="304" y="290" width="199" height="60" as="geometry"/>
                </mxCell>
            </root>
        </mxGraphModel>
    </diagram>
    <diagram id="ehnoEEF9n4BiLehxZQpq" name="read_file">
        <mxGraphModel dx="1167" dy="804" grid="1" gridSize="10" guides="1" tooltips="1" connect="1" arrows="1" fold="1" page="1" pageScale="1" pageWidth="850" pageHeight="1100" math="0" shadow="0">
            <root>
                <mxCell id="0"/>
                <mxCell id="1" parent="0"/>
                <mxCell id="KLnvo4flQQZN-DkG7qg0-3" style="edgeStyle=orthogonalEdgeStyle;rounded=0;orthogonalLoop=1;jettySize=auto;html=1;entryX=0.5;entryY=0;entryDx=0;entryDy=0;" parent="1" source="UbdjSqkpSSqtkmKPITJd-3" target="KLnvo4flQQZN-DkG7qg0-1" edge="1">
                    <mxGeometry relative="1" as="geometry"/>
                </mxCell>
                <mxCell id="UbdjSqkpSSqtkmKPITJd-3" value="read_file&lt;br&gt;( user[] )" style="rounded=1;whiteSpace=wrap;html=1;arcSize=50;" parent="1" vertex="1">
                    <mxGeometry x="365" y="50" width="120" height="60" as="geometry"/>
                </mxCell>
                <mxCell id="Upt6iaXhjEfEoR6qR-rQ-1" style="edgeStyle=orthogonalEdgeStyle;rounded=0;orthogonalLoop=1;jettySize=auto;html=1;" parent="1" source="171BBgIo5cwfITlF8df--2" target="171BBgIo5cwfITlF8df--3" edge="1">
                    <mxGeometry relative="1" as="geometry"/>
                </mxCell>
                <mxCell id="171BBgIo5cwfITlF8df--2" value="fp = read &quot;a.txt&quot;" style="rounded=0;whiteSpace=wrap;html=1;" parent="1" vertex="1">
                    <mxGeometry x="365.5" y="240" width="120" height="60" as="geometry"/>
                </mxCell>
                <mxCell id="ASQ1Q3kjtmBV7wlreZEA-4" value="True" style="edgeStyle=orthogonalEdgeStyle;rounded=0;orthogonalLoop=1;jettySize=auto;html=1;entryX=0.5;entryY=0;entryDx=0;entryDy=0;" parent="1" source="171BBgIo5cwfITlF8df--3" target="171BBgIo5cwfITlF8df--4" edge="1">
                    <mxGeometry relative="1" as="geometry"/>
                </mxCell>
                <mxCell id="ApNNG66VinJJXPGargSc-6" value="False" style="edgeStyle=orthogonalEdgeStyle;rounded=0;orthogonalLoop=1;jettySize=auto;html=1;entryX=0.5;entryY=0;entryDx=0;entryDy=0;" parent="1" source="171BBgIo5cwfITlF8df--3" target="ApNNG66VinJJXPGargSc-4" edge="1">
                    <mxGeometry x="-0.8975" relative="1" as="geometry">
                        <mxPoint x="540" y="640" as="targetPoint"/>
                        <Array as="points">
                            <mxPoint x="550" y="380"/>
                            <mxPoint x="550" y="640"/>
                            <mxPoint x="426" y="640"/>
                        </Array>
                        <mxPoint as="offset"/>
                    </mxGeometry>
                </mxCell>
                <mxCell id="171BBgIo5cwfITlF8df--3" value="fp = NULL ?" style="rhombus;whiteSpace=wrap;html=1;" parent="1" vertex="1">
                    <mxGeometry x="354" y="340" width="142" height="80" as="geometry"/>
                </mxCell>
                <mxCell id="ASQ1Q3kjtmBV7wlreZEA-5" style="edgeStyle=orthogonalEdgeStyle;rounded=0;orthogonalLoop=1;jettySize=auto;html=1;entryX=0.5;entryY=0;entryDx=0;entryDy=0;" parent="1" source="171BBgIo5cwfITlF8df--4" target="171BBgIo5cwfITlF8df--5" edge="1">
                    <mxGeometry relative="1" as="geometry"/>
                </mxCell>
                <mxCell id="171BBgIo5cwfITlF8df--4" value="show &quot;Error opening&quot;" style="shape=parallelogram;perimeter=parallelogramPerimeter;whiteSpace=wrap;html=1;fixedSize=1;" parent="1" vertex="1">
                    <mxGeometry x="343" y="470" width="165" height="60" as="geometry"/>
                </mxCell>
                <mxCell id="Upt6iaXhjEfEoR6qR-rQ-5" style="edgeStyle=orthogonalEdgeStyle;rounded=0;orthogonalLoop=1;jettySize=auto;html=1;entryX=0;entryY=0.5;entryDx=0;entryDy=0;" parent="1" source="171BBgIo5cwfITlF8df--5" target="Upt6iaXhjEfEoR6qR-rQ-2" edge="1">
                    <mxGeometry relative="1" as="geometry">
                        <mxPoint x="260" y="1240" as="targetPoint"/>
                        <Array as="points">
                            <mxPoint x="220" y="590"/>
                            <mxPoint x="220" y="1330"/>
                        </Array>
                    </mxGeometry>
                </mxCell>
                <mxCell id="171BBgIo5cwfITlF8df--5" value="Exit the program" style="rounded=0;whiteSpace=wrap;html=1;" parent="1" vertex="1">
                    <mxGeometry x="365" y="560" width="120" height="60" as="geometry"/>
                </mxCell>
                <mxCell id="ApNNG66VinJJXPGargSc-8" style="edgeStyle=orthogonalEdgeStyle;rounded=0;orthogonalLoop=1;jettySize=auto;html=1;entryX=0.5;entryY=0;entryDx=0;entryDy=0;" parent="1" source="ApNNG66VinJJXPGargSc-4" target="ApNNG66VinJJXPGargSc-7" edge="1">
                    <mxGeometry relative="1" as="geometry"/>
                </mxCell>
                <mxCell id="ApNNG66VinJJXPGargSc-4" value="input &quot;fp&quot; in t1, t2, t3" style="shape=parallelogram;perimeter=parallelogramPerimeter;whiteSpace=wrap;html=1;fixedSize=1;" parent="1" vertex="1">
                    <mxGeometry x="318.5" y="670" width="214" height="60" as="geometry"/>
                </mxCell>
                <mxCell id="ApNNG66VinJJXPGargSc-11" style="edgeStyle=orthogonalEdgeStyle;rounded=0;orthogonalLoop=1;jettySize=auto;html=1;entryX=0.5;entryY=0;entryDx=0;entryDy=0;" parent="1" source="ApNNG66VinJJXPGargSc-7" target="ApNNG66VinJJXPGargSc-9" edge="1">
                    <mxGeometry relative="1" as="geometry"/>
                </mxCell>
                <mxCell id="ApNNG66VinJJXPGargSc-7" value="i = 0" style="rounded=0;whiteSpace=wrap;html=1;" parent="1" vertex="1">
                    <mxGeometry x="365.5" y="770" width="120" height="60" as="geometry"/>
                </mxCell>
                <mxCell id="ApNNG66VinJJXPGargSc-14" style="edgeStyle=orthogonalEdgeStyle;rounded=0;orthogonalLoop=1;jettySize=auto;html=1;entryX=0.5;entryY=0;entryDx=0;entryDy=0;" parent="1" source="ApNNG66VinJJXPGargSc-9" target="ApNNG66VinJJXPGargSc-12" edge="1">
                    <mxGeometry relative="1" as="geometry"/>
                </mxCell>
                <mxCell id="ApNNG66VinJJXPGargSc-9" value="" style="ellipse;whiteSpace=wrap;html=1;aspect=fixed;" parent="1" vertex="1">
                    <mxGeometry x="415" y="860" width="20" height="20" as="geometry"/>
                </mxCell>
                <mxCell id="ApNNG66VinJJXPGargSc-16" value="True" style="edgeStyle=orthogonalEdgeStyle;rounded=0;orthogonalLoop=1;jettySize=auto;html=1;entryX=0.5;entryY=0;entryDx=0;entryDy=0;" parent="1" source="ApNNG66VinJJXPGargSc-12" target="ApNNG66VinJJXPGargSc-15" edge="1">
                    <mxGeometry relative="1" as="geometry"/>
                </mxCell>
                <mxCell id="ApNNG66VinJJXPGargSc-19" value="False" style="edgeStyle=orthogonalEdgeStyle;rounded=0;orthogonalLoop=1;jettySize=auto;html=1;exitX=1;exitY=0.5;exitDx=0;exitDy=0;" parent="1" source="ApNNG66VinJJXPGargSc-12" target="ApNNG66VinJJXPGargSc-18" edge="1">
                    <mxGeometry x="-0.8747" relative="1" as="geometry">
                        <mxPoint x="520" y="1120" as="targetPoint"/>
                        <Array as="points">
                            <mxPoint x="620" y="955"/>
                            <mxPoint x="620" y="1120"/>
                            <mxPoint x="426" y="1120"/>
                        </Array>
                        <mxPoint as="offset"/>
                    </mxGeometry>
                </mxCell>
                <mxCell id="ApNNG66VinJJXPGargSc-12" value="input &quot;fp&quot; in t1, user[ i ].name,&lt;br&gt;user[ i ].date != EOF ?" style="rhombus;whiteSpace=wrap;html=1;" parent="1" vertex="1">
                    <mxGeometry x="279" y="910" width="293" height="90" as="geometry"/>
                </mxCell>
                <mxCell id="ApNNG66VinJJXPGargSc-17" style="edgeStyle=orthogonalEdgeStyle;rounded=0;orthogonalLoop=1;jettySize=auto;html=1;entryX=0;entryY=0.5;entryDx=0;entryDy=0;" parent="1" source="ApNNG66VinJJXPGargSc-15" target="ApNNG66VinJJXPGargSc-9" edge="1">
                    <mxGeometry relative="1" as="geometry">
                        <mxPoint x="320" y="870" as="targetPoint"/>
                        <Array as="points">
                            <mxPoint x="260" y="1070"/>
                            <mxPoint x="260" y="870"/>
                        </Array>
                    </mxGeometry>
                </mxCell>
                <mxCell id="ApNNG66VinJJXPGargSc-15" value="i = i + 1" style="rounded=0;whiteSpace=wrap;html=1;" parent="1" vertex="1">
                    <mxGeometry x="365" y="1040" width="120" height="60" as="geometry"/>
                </mxCell>
                <mxCell id="0_1IhcY4XA1a6OVoIuEe-2" style="edgeStyle=orthogonalEdgeStyle;rounded=0;orthogonalLoop=1;jettySize=auto;html=1;entryX=0.5;entryY=0;entryDx=0;entryDy=0;" parent="1" source="ApNNG66VinJJXPGargSc-18" target="0_1IhcY4XA1a6OVoIuEe-1" edge="1">
                    <mxGeometry relative="1" as="geometry"/>
                </mxCell>
                <mxCell id="ApNNG66VinJJXPGargSc-18" value="close( fp )" style="rounded=0;whiteSpace=wrap;html=1;" parent="1" vertex="1">
                    <mxGeometry x="365.5" y="1140" width="120" height="60" as="geometry"/>
                </mxCell>
                <mxCell id="ApNNG66VinJJXPGargSc-21" value="End" style="rounded=1;whiteSpace=wrap;html=1;arcSize=50;" parent="1" vertex="1">
                    <mxGeometry x="365.5" y="1370" width="120" height="60" as="geometry"/>
                </mxCell>
                <mxCell id="Upt6iaXhjEfEoR6qR-rQ-4" style="edgeStyle=orthogonalEdgeStyle;rounded=0;orthogonalLoop=1;jettySize=auto;html=1;entryX=0.5;entryY=0;entryDx=0;entryDy=0;" parent="1" source="Upt6iaXhjEfEoR6qR-rQ-2" target="ApNNG66VinJJXPGargSc-21" edge="1">
                    <mxGeometry relative="1" as="geometry"/>
                </mxCell>
                <mxCell id="Upt6iaXhjEfEoR6qR-rQ-2" value="" style="ellipse;whiteSpace=wrap;html=1;aspect=fixed;" parent="1" vertex="1">
                    <mxGeometry x="415" y="1320" width="20" height="20" as="geometry"/>
                </mxCell>
                <mxCell id="0_1IhcY4XA1a6OVoIuEe-3" style="edgeStyle=orthogonalEdgeStyle;rounded=0;orthogonalLoop=1;jettySize=auto;html=1;entryX=0.5;entryY=0;entryDx=0;entryDy=0;" parent="1" source="0_1IhcY4XA1a6OVoIuEe-1" target="Upt6iaXhjEfEoR6qR-rQ-2" edge="1">
                    <mxGeometry relative="1" as="geometry"/>
                </mxCell>
                <mxCell id="0_1IhcY4XA1a6OVoIuEe-1" value="return i" style="rounded=0;whiteSpace=wrap;html=1;" parent="1" vertex="1">
                    <mxGeometry x="365.5" y="1230" width="120" height="60" as="geometry"/>
                </mxCell>
                <mxCell id="KLnvo4flQQZN-DkG7qg0-2" style="edgeStyle=orthogonalEdgeStyle;rounded=0;orthogonalLoop=1;jettySize=auto;html=1;entryX=0.5;entryY=0;entryDx=0;entryDy=0;" parent="1" source="KLnvo4flQQZN-DkG7qg0-1" target="171BBgIo5cwfITlF8df--2" edge="1">
                    <mxGeometry relative="1" as="geometry"/>
                </mxCell>
                <mxCell id="KLnvo4flQQZN-DkG7qg0-1" value="t1[ 20 ]&lt;br&gt;t2[ 20 ]&lt;br&gt;t3[ 20 ]" style="rounded=0;whiteSpace=wrap;html=1;" parent="1" vertex="1">
                    <mxGeometry x="365" y="150" width="120" height="60" as="geometry"/>
                </mxCell>
            </root>
        </mxGraphModel>
    </diagram>
    <diagram id="Pgjd0e5aS1kfDdqmCPpF" name="calculate_age">
        <mxGraphModel dx="1167" dy="-296" grid="1" gridSize="10" guides="1" tooltips="1" connect="1" arrows="1" fold="1" page="1" pageScale="1" pageWidth="850" pageHeight="1100" math="0" shadow="0">
            <root>
                <mxCell id="0"/>
                <mxCell id="1" parent="0"/>
                <mxCell id="qOevLQ6Uj-AyZu6DaQIO-6" style="edgeStyle=orthogonalEdgeStyle;rounded=0;orthogonalLoop=1;jettySize=auto;html=1;entryX=0.5;entryY=0;entryDx=0;entryDy=0;strokeColor=#000000;" parent="1" source="V16NxFi_IiF36mgJrKMx-1" target="V16NxFi_IiF36mgJrKMx-3" edge="1">
                    <mxGeometry relative="1" as="geometry"/>
                </mxCell>
                <mxCell id="V16NxFi_IiF36mgJrKMx-1" value="calculate_age&lt;br&gt;( user[], i )" style="rounded=1;whiteSpace=wrap;html=1;arcSize=50;strokeColor=#000000;" parent="1" vertex="1">
                    <mxGeometry x="365.5" y="1200" width="120" height="60" as="geometry"/>
                </mxCell>
                <mxCell id="qOevLQ6Uj-AyZu6DaQIO-8" style="edgeStyle=orthogonalEdgeStyle;rounded=0;orthogonalLoop=1;jettySize=auto;html=1;entryX=0.5;entryY=0;entryDx=0;entryDy=0;strokeColor=#000000;" parent="1" source="V16NxFi_IiF36mgJrKMx-2" target="qOevLQ6Uj-AyZu6DaQIO-1" edge="1">
                    <mxGeometry relative="1" as="geometry"/>
                </mxCell>
                <mxCell id="V16NxFi_IiF36mgJrKMx-2" value="count = 0" style="rounded=0;whiteSpace=wrap;html=1;strokeColor=#000000;" parent="1" vertex="1">
                    <mxGeometry x="364.75" y="1480" width="120" height="60" as="geometry"/>
                </mxCell>
                <mxCell id="V16NxFi_IiF36mgJrKMx-5" style="edgeStyle=orthogonalEdgeStyle;rounded=0;orthogonalLoop=1;jettySize=auto;html=1;entryX=0.5;entryY=0;entryDx=0;entryDy=0;strokeColor=#000000;" parent="1" source="V16NxFi_IiF36mgJrKMx-3" target="V16NxFi_IiF36mgJrKMx-4" edge="1">
                    <mxGeometry relative="1" as="geometry"/>
                </mxCell>
                <mxCell id="V16NxFi_IiF36mgJrKMx-3" value="year_end = 2018&lt;br&gt;month_end = 6&lt;br&gt;day_end = 21" style="rounded=0;whiteSpace=wrap;html=1;strokeColor=#000000;" parent="1" vertex="1">
                    <mxGeometry x="364.75" y="1290" width="120" height="70" as="geometry"/>
                </mxCell>
                <mxCell id="qOevLQ6Uj-AyZu6DaQIO-7" style="edgeStyle=orthogonalEdgeStyle;rounded=0;orthogonalLoop=1;jettySize=auto;html=1;entryX=0.5;entryY=0;entryDx=0;entryDy=0;strokeColor=#000000;" parent="1" source="V16NxFi_IiF36mgJrKMx-4" target="V16NxFi_IiF36mgJrKMx-2" edge="1">
                    <mxGeometry relative="1" as="geometry"/>
                </mxCell>
                <mxCell id="V16NxFi_IiF36mgJrKMx-4" value="token =&amp;nbsp;Extract &quot;user[ i ].date&quot; delimiters &quot; - &quot;" style="rounded=0;whiteSpace=wrap;html=1;strokeColor=#000000;" parent="1" vertex="1">
                    <mxGeometry x="297.5" y="1390" width="256" height="60" as="geometry"/>
                </mxCell>
                <mxCell id="qOevLQ6Uj-AyZu6DaQIO-5" value="True" style="edgeStyle=orthogonalEdgeStyle;rounded=0;orthogonalLoop=1;jettySize=auto;html=1;entryX=0.5;entryY=0;entryDx=0;entryDy=0;strokeColor=#000000;" parent="1" source="V16NxFi_IiF36mgJrKMx-6" target="qOevLQ6Uj-AyZu6DaQIO-4" edge="1">
                    <mxGeometry relative="1" as="geometry"/>
                </mxCell>
                <mxCell id="qOevLQ6Uj-AyZu6DaQIO-56" value="False" style="edgeStyle=orthogonalEdgeStyle;rounded=0;orthogonalLoop=1;jettySize=auto;html=1;entryX=0.5;entryY=0;entryDx=0;entryDy=0;strokeColor=#000000;" parent="1" source="V16NxFi_IiF36mgJrKMx-6" target="qOevLQ6Uj-AyZu6DaQIO-55" edge="1">
                    <mxGeometry x="-0.9621" relative="1" as="geometry">
                        <mxPoint x="1090" y="2800" as="targetPoint"/>
                        <Array as="points">
                            <mxPoint x="1000" y="1670"/>
                            <mxPoint x="1000" y="2800"/>
                            <mxPoint x="426" y="2800"/>
                        </Array>
                        <mxPoint as="offset"/>
                    </mxGeometry>
                </mxCell>
                <mxCell id="V16NxFi_IiF36mgJrKMx-6" value="token != NULL ?" style="rhombus;whiteSpace=wrap;html=1;strokeColor=#000000;" parent="1" vertex="1">
                    <mxGeometry x="346.5" y="1630" width="155" height="80" as="geometry"/>
                </mxCell>
                <mxCell id="qOevLQ6Uj-AyZu6DaQIO-3" style="edgeStyle=orthogonalEdgeStyle;rounded=0;orthogonalLoop=1;jettySize=auto;html=1;strokeColor=#000000;" parent="1" source="qOevLQ6Uj-AyZu6DaQIO-1" target="V16NxFi_IiF36mgJrKMx-6" edge="1">
                    <mxGeometry relative="1" as="geometry"/>
                </mxCell>
                <mxCell id="qOevLQ6Uj-AyZu6DaQIO-1" value="" style="ellipse;whiteSpace=wrap;html=1;aspect=fixed;strokeColor=#000000;" parent="1" vertex="1">
                    <mxGeometry x="414" y="1580" width="20" height="20" as="geometry"/>
                </mxCell>
                <mxCell id="qOevLQ6Uj-AyZu6DaQIO-10" style="edgeStyle=orthogonalEdgeStyle;rounded=0;orthogonalLoop=1;jettySize=auto;html=1;entryX=0.5;entryY=0;entryDx=0;entryDy=0;strokeColor=#000000;" parent="1" source="qOevLQ6Uj-AyZu6DaQIO-4" target="qOevLQ6Uj-AyZu6DaQIO-9" edge="1">
                    <mxGeometry relative="1" as="geometry"/>
                </mxCell>
                <mxCell id="qOevLQ6Uj-AyZu6DaQIO-4" value="data = integer in &lt;br&gt;&quot;token&quot; each position" style="rounded=0;whiteSpace=wrap;html=1;strokeColor=#000000;" parent="1" vertex="1">
                    <mxGeometry x="343.75" y="1760" width="162" height="60" as="geometry"/>
                </mxCell>
                <mxCell id="qOevLQ6Uj-AyZu6DaQIO-14" value="True" style="edgeStyle=orthogonalEdgeStyle;rounded=0;orthogonalLoop=1;jettySize=auto;html=1;entryX=0.5;entryY=0;entryDx=0;entryDy=0;strokeColor=#000000;" parent="1" source="qOevLQ6Uj-AyZu6DaQIO-9" target="qOevLQ6Uj-AyZu6DaQIO-13" edge="1">
                    <mxGeometry relative="1" as="geometry"/>
                </mxCell>
                <mxCell id="qOevLQ6Uj-AyZu6DaQIO-20" value="False" style="edgeStyle=orthogonalEdgeStyle;rounded=0;orthogonalLoop=1;jettySize=auto;html=1;entryX=0.5;entryY=0;entryDx=0;entryDy=0;strokeColor=#000000;" parent="1" source="qOevLQ6Uj-AyZu6DaQIO-9" target="qOevLQ6Uj-AyZu6DaQIO-11" edge="1">
                    <mxGeometry x="-0.6274" relative="1" as="geometry">
                        <mxPoint as="offset"/>
                    </mxGeometry>
                </mxCell>
                <mxCell id="qOevLQ6Uj-AyZu6DaQIO-9" value="count = 0 ?" style="rhombus;whiteSpace=wrap;html=1;strokeColor=#000000;" parent="1" vertex="1">
                    <mxGeometry x="356.37" y="1880" width="135.25" height="80" as="geometry"/>
                </mxCell>
                <mxCell id="qOevLQ6Uj-AyZu6DaQIO-17" value="True" style="edgeStyle=orthogonalEdgeStyle;rounded=0;orthogonalLoop=1;jettySize=auto;html=1;strokeColor=#000000;" parent="1" source="qOevLQ6Uj-AyZu6DaQIO-11" target="qOevLQ6Uj-AyZu6DaQIO-16" edge="1">
                    <mxGeometry relative="1" as="geometry"/>
                </mxCell>
                <mxCell id="qOevLQ6Uj-AyZu6DaQIO-18" value="False" style="edgeStyle=orthogonalEdgeStyle;rounded=0;orthogonalLoop=1;jettySize=auto;html=1;entryX=0.5;entryY=0;entryDx=0;entryDy=0;strokeColor=#000000;" parent="1" source="qOevLQ6Uj-AyZu6DaQIO-11" target="qOevLQ6Uj-AyZu6DaQIO-12" edge="1">
                    <mxGeometry x="-0.6728" relative="1" as="geometry">
                        <mxPoint x="-1" as="offset"/>
                    </mxGeometry>
                </mxCell>
                <mxCell id="qOevLQ6Uj-AyZu6DaQIO-11" value="count = 1 ?" style="rhombus;whiteSpace=wrap;html=1;strokeColor=#000000;" parent="1" vertex="1">
                    <mxGeometry x="547" y="1960" width="135.25" height="80" as="geometry"/>
                </mxCell>
                <mxCell id="qOevLQ6Uj-AyZu6DaQIO-33" value="True" style="edgeStyle=orthogonalEdgeStyle;rounded=0;orthogonalLoop=1;jettySize=auto;html=1;entryX=0.5;entryY=0;entryDx=0;entryDy=0;strokeColor=#000000;" parent="1" source="qOevLQ6Uj-AyZu6DaQIO-12" target="qOevLQ6Uj-AyZu6DaQIO-31" edge="1">
                    <mxGeometry relative="1" as="geometry"/>
                </mxCell>
                <mxCell id="qOevLQ6Uj-AyZu6DaQIO-46" value="False" style="edgeStyle=orthogonalEdgeStyle;rounded=0;orthogonalLoop=1;jettySize=auto;html=1;entryX=1;entryY=0.5;entryDx=0;entryDy=0;strokeColor=#000000;" parent="1" source="qOevLQ6Uj-AyZu6DaQIO-12" target="qOevLQ6Uj-AyZu6DaQIO-41" edge="1">
                    <mxGeometry x="-0.9094" relative="1" as="geometry">
                        <mxPoint x="997" y="2560" as="targetPoint"/>
                        <Array as="points">
                            <mxPoint x="957" y="2080"/>
                            <mxPoint x="957" y="2560"/>
                        </Array>
                        <mxPoint x="-1" as="offset"/>
                    </mxGeometry>
                </mxCell>
                <mxCell id="qOevLQ6Uj-AyZu6DaQIO-12" value="count = 2 ?" style="rhombus;whiteSpace=wrap;html=1;strokeColor=#000000;" parent="1" vertex="1">
                    <mxGeometry x="747" y="2040" width="135.25" height="80" as="geometry"/>
                </mxCell>
                <mxCell id="qOevLQ6Uj-AyZu6DaQIO-48" style="edgeStyle=orthogonalEdgeStyle;rounded=0;orthogonalLoop=1;jettySize=auto;html=1;entryX=0.5;entryY=0;entryDx=0;entryDy=0;strokeColor=#000000;" parent="1" source="qOevLQ6Uj-AyZu6DaQIO-13" target="qOevLQ6Uj-AyZu6DaQIO-47" edge="1">
                    <mxGeometry relative="1" as="geometry"/>
                </mxCell>
                <mxCell id="qOevLQ6Uj-AyZu6DaQIO-13" value="user[ i ].years_old = year_end - data" style="rounded=0;whiteSpace=wrap;html=1;strokeColor=#000000;" parent="1" vertex="1">
                    <mxGeometry x="344.75" y="2000" width="158.5" height="60" as="geometry"/>
                </mxCell>
                <mxCell id="qOevLQ6Uj-AyZu6DaQIO-22" style="edgeStyle=orthogonalEdgeStyle;rounded=0;orthogonalLoop=1;jettySize=auto;html=1;entryX=0.5;entryY=0;entryDx=0;entryDy=0;strokeColor=#000000;" parent="1" source="qOevLQ6Uj-AyZu6DaQIO-16" target="qOevLQ6Uj-AyZu6DaQIO-21" edge="1">
                    <mxGeometry relative="1" as="geometry"/>
                </mxCell>
                <mxCell id="qOevLQ6Uj-AyZu6DaQIO-16" value="user[ i ].month = &lt;br&gt;absolute (month_end - data)" style="rounded=0;whiteSpace=wrap;html=1;strokeColor=#000000;" parent="1" vertex="1">
                    <mxGeometry x="520" y="2080" width="168.19" height="60" as="geometry"/>
                </mxCell>
                <mxCell id="qOevLQ6Uj-AyZu6DaQIO-25" value="True" style="edgeStyle=orthogonalEdgeStyle;rounded=0;orthogonalLoop=1;jettySize=auto;html=1;entryX=0.5;entryY=0;entryDx=0;entryDy=0;strokeColor=#000000;" parent="1" source="qOevLQ6Uj-AyZu6DaQIO-21" target="qOevLQ6Uj-AyZu6DaQIO-23" edge="1">
                    <mxGeometry relative="1" as="geometry"/>
                </mxCell>
                <mxCell id="qOevLQ6Uj-AyZu6DaQIO-30" value="False" style="edgeStyle=orthogonalEdgeStyle;rounded=0;orthogonalLoop=1;jettySize=auto;html=1;entryX=1;entryY=0.5;entryDx=0;entryDy=0;strokeColor=#000000;" parent="1" source="qOevLQ6Uj-AyZu6DaQIO-21" target="qOevLQ6Uj-AyZu6DaQIO-28" edge="1">
                    <mxGeometry x="-0.8961" relative="1" as="geometry">
                        <mxPoint x="717" y="2500" as="targetPoint"/>
                        <Array as="points">
                            <mxPoint x="717" y="2220"/>
                            <mxPoint x="717" y="2510"/>
                        </Array>
                        <mxPoint as="offset"/>
                    </mxGeometry>
                </mxCell>
                <mxCell id="qOevLQ6Uj-AyZu6DaQIO-21" value="month_end &amp;lt; data ?&amp;nbsp;" style="rhombus;whiteSpace=wrap;html=1;strokeColor=#000000;" parent="1" vertex="1">
                    <mxGeometry x="545.9399999999999" y="2180" width="137.37" height="80" as="geometry"/>
                </mxCell>
                <mxCell id="qOevLQ6Uj-AyZu6DaQIO-27" style="edgeStyle=orthogonalEdgeStyle;rounded=0;orthogonalLoop=1;jettySize=auto;html=1;entryX=0.5;entryY=0;entryDx=0;entryDy=0;strokeColor=#000000;" parent="1" source="qOevLQ6Uj-AyZu6DaQIO-23" target="qOevLQ6Uj-AyZu6DaQIO-26" edge="1">
                    <mxGeometry relative="1" as="geometry"/>
                </mxCell>
                <mxCell id="qOevLQ6Uj-AyZu6DaQIO-23" value="user[ i ].years_old - 1&amp;nbsp;" style="rounded=0;whiteSpace=wrap;html=1;strokeColor=#000000;" parent="1" vertex="1">
                    <mxGeometry x="544.62" y="2300" width="140" height="60" as="geometry"/>
                </mxCell>
                <mxCell id="qOevLQ6Uj-AyZu6DaQIO-29" style="edgeStyle=orthogonalEdgeStyle;rounded=0;orthogonalLoop=1;jettySize=auto;html=1;entryX=0.5;entryY=0;entryDx=0;entryDy=0;strokeColor=#000000;" parent="1" source="qOevLQ6Uj-AyZu6DaQIO-26" target="qOevLQ6Uj-AyZu6DaQIO-28" edge="1">
                    <mxGeometry relative="1" as="geometry"/>
                </mxCell>
                <mxCell id="qOevLQ6Uj-AyZu6DaQIO-26" value="user[ i ].month = &lt;br&gt;12 - user[ i ].month" style="rounded=0;whiteSpace=wrap;html=1;strokeColor=#000000;" parent="1" vertex="1">
                    <mxGeometry x="543.43" y="2400" width="142.38" height="60" as="geometry"/>
                </mxCell>
                <mxCell id="qOevLQ6Uj-AyZu6DaQIO-40" style="edgeStyle=orthogonalEdgeStyle;rounded=0;orthogonalLoop=1;jettySize=auto;html=1;entryX=0.5;entryY=0;entryDx=0;entryDy=0;strokeColor=#000000;" parent="1" source="qOevLQ6Uj-AyZu6DaQIO-28" target="qOevLQ6Uj-AyZu6DaQIO-39" edge="1">
                    <mxGeometry relative="1" as="geometry"/>
                </mxCell>
                <mxCell id="qOevLQ6Uj-AyZu6DaQIO-28" value="" style="ellipse;whiteSpace=wrap;html=1;aspect=fixed;strokeColor=#000000;" parent="1" vertex="1">
                    <mxGeometry x="604.62" y="2500" width="20" height="20" as="geometry"/>
                </mxCell>
                <mxCell id="qOevLQ6Uj-AyZu6DaQIO-34" value="True" style="edgeStyle=orthogonalEdgeStyle;rounded=0;orthogonalLoop=1;jettySize=auto;html=1;entryX=0.5;entryY=0;entryDx=0;entryDy=0;strokeColor=#000000;" parent="1" source="qOevLQ6Uj-AyZu6DaQIO-31" target="qOevLQ6Uj-AyZu6DaQIO-32" edge="1">
                    <mxGeometry relative="1" as="geometry"/>
                </mxCell>
                <mxCell id="qOevLQ6Uj-AyZu6DaQIO-37" value="False" style="edgeStyle=orthogonalEdgeStyle;rounded=0;orthogonalLoop=1;jettySize=auto;html=1;entryX=1;entryY=0.5;entryDx=0;entryDy=0;strokeColor=#000000;" parent="1" source="qOevLQ6Uj-AyZu6DaQIO-31" target="qOevLQ6Uj-AyZu6DaQIO-35" edge="1">
                    <mxGeometry x="-0.8664" relative="1" as="geometry">
                        <mxPoint x="927" y="2530" as="targetPoint"/>
                        <Array as="points">
                            <mxPoint x="917" y="2200"/>
                            <mxPoint x="917" y="2510"/>
                        </Array>
                        <mxPoint x="-1" as="offset"/>
                    </mxGeometry>
                </mxCell>
                <mxCell id="qOevLQ6Uj-AyZu6DaQIO-31" value="day_end &amp;lt; data ?" style="rhombus;whiteSpace=wrap;html=1;strokeColor=#000000;" parent="1" vertex="1">
                    <mxGeometry x="754.63" y="2160" width="120" height="80" as="geometry"/>
                </mxCell>
                <mxCell id="qOevLQ6Uj-AyZu6DaQIO-36" style="edgeStyle=orthogonalEdgeStyle;rounded=0;orthogonalLoop=1;jettySize=auto;html=1;entryX=0.5;entryY=0;entryDx=0;entryDy=0;strokeColor=#000000;" parent="1" source="qOevLQ6Uj-AyZu6DaQIO-32" target="qOevLQ6Uj-AyZu6DaQIO-35" edge="1">
                    <mxGeometry relative="1" as="geometry"/>
                </mxCell>
                <mxCell id="qOevLQ6Uj-AyZu6DaQIO-32" value="user[ i ].month - 1&amp;nbsp;" style="rounded=0;whiteSpace=wrap;html=1;strokeColor=#000000;" parent="1" vertex="1">
                    <mxGeometry x="744.63" y="2280" width="140" height="60" as="geometry"/>
                </mxCell>
                <mxCell id="qOevLQ6Uj-AyZu6DaQIO-44" style="edgeStyle=orthogonalEdgeStyle;rounded=0;orthogonalLoop=1;jettySize=auto;html=1;entryX=0.5;entryY=0;entryDx=0;entryDy=0;strokeColor=#000000;" parent="1" source="qOevLQ6Uj-AyZu6DaQIO-35" target="qOevLQ6Uj-AyZu6DaQIO-41" edge="1">
                    <mxGeometry relative="1" as="geometry"/>
                </mxCell>
                <mxCell id="qOevLQ6Uj-AyZu6DaQIO-35" value="" style="ellipse;whiteSpace=wrap;html=1;aspect=fixed;strokeColor=#000000;" parent="1" vertex="1">
                    <mxGeometry x="804.63" y="2500" width="20" height="20" as="geometry"/>
                </mxCell>
                <mxCell id="qOevLQ6Uj-AyZu6DaQIO-49" style="edgeStyle=orthogonalEdgeStyle;rounded=0;orthogonalLoop=1;jettySize=auto;html=1;entryX=1;entryY=0.5;entryDx=0;entryDy=0;strokeColor=#000000;" parent="1" source="qOevLQ6Uj-AyZu6DaQIO-39" target="qOevLQ6Uj-AyZu6DaQIO-47" edge="1">
                    <mxGeometry relative="1" as="geometry"/>
                </mxCell>
                <mxCell id="qOevLQ6Uj-AyZu6DaQIO-39" value="" style="ellipse;whiteSpace=wrap;html=1;aspect=fixed;strokeColor=#000000;" parent="1" vertex="1">
                    <mxGeometry x="604.62" y="2550" width="20" height="20" as="geometry"/>
                </mxCell>
                <mxCell id="qOevLQ6Uj-AyZu6DaQIO-45" style="edgeStyle=orthogonalEdgeStyle;rounded=0;orthogonalLoop=1;jettySize=auto;html=1;entryX=1;entryY=0.5;entryDx=0;entryDy=0;strokeColor=#000000;" parent="1" source="qOevLQ6Uj-AyZu6DaQIO-41" target="qOevLQ6Uj-AyZu6DaQIO-39" edge="1">
                    <mxGeometry relative="1" as="geometry"/>
                </mxCell>
                <mxCell id="qOevLQ6Uj-AyZu6DaQIO-41" value="" style="ellipse;whiteSpace=wrap;html=1;aspect=fixed;strokeColor=#000000;" parent="1" vertex="1">
                    <mxGeometry x="804.63" y="2550" width="20" height="20" as="geometry"/>
                </mxCell>
                <mxCell id="qOevLQ6Uj-AyZu6DaQIO-51" style="edgeStyle=orthogonalEdgeStyle;rounded=0;orthogonalLoop=1;jettySize=auto;html=1;entryX=0.5;entryY=0;entryDx=0;entryDy=0;strokeColor=#000000;" parent="1" source="qOevLQ6Uj-AyZu6DaQIO-47" target="qOevLQ6Uj-AyZu6DaQIO-50" edge="1">
                    <mxGeometry relative="1" as="geometry"/>
                </mxCell>
                <mxCell id="qOevLQ6Uj-AyZu6DaQIO-47" value="" style="ellipse;whiteSpace=wrap;html=1;aspect=fixed;strokeColor=#000000;" parent="1" vertex="1">
                    <mxGeometry x="413.99" y="2550" width="20" height="20" as="geometry"/>
                </mxCell>
                <mxCell id="qOevLQ6Uj-AyZu6DaQIO-53" style="edgeStyle=orthogonalEdgeStyle;rounded=0;orthogonalLoop=1;jettySize=auto;html=1;entryX=0.5;entryY=0;entryDx=0;entryDy=0;strokeColor=#000000;" parent="1" source="qOevLQ6Uj-AyZu6DaQIO-50" target="qOevLQ6Uj-AyZu6DaQIO-52" edge="1">
                    <mxGeometry relative="1" as="geometry"/>
                </mxCell>
                <mxCell id="qOevLQ6Uj-AyZu6DaQIO-50" value="count = count + 1" style="rounded=0;whiteSpace=wrap;html=1;strokeColor=#000000;" parent="1" vertex="1">
                    <mxGeometry x="363.99" y="2620" width="120" height="60" as="geometry"/>
                </mxCell>
                <mxCell id="qOevLQ6Uj-AyZu6DaQIO-54" style="edgeStyle=orthogonalEdgeStyle;rounded=0;orthogonalLoop=1;jettySize=auto;html=1;entryX=0;entryY=0.5;entryDx=0;entryDy=0;strokeColor=#000000;" parent="1" source="qOevLQ6Uj-AyZu6DaQIO-52" target="qOevLQ6Uj-AyZu6DaQIO-1" edge="1">
                    <mxGeometry relative="1" as="geometry">
                        <mxPoint x="300" y="1590" as="targetPoint"/>
                        <Array as="points">
                            <mxPoint x="290" y="2740"/>
                            <mxPoint x="290" y="1590"/>
                        </Array>
                    </mxGeometry>
                </mxCell>
                <mxCell id="qOevLQ6Uj-AyZu6DaQIO-52" value="If end delimiters &quot;-&quot;&lt;br&gt;token = &quot;NULL&quot;" style="rounded=0;whiteSpace=wrap;html=1;strokeColor=#000000;" parent="1" vertex="1">
                    <mxGeometry x="350.99" y="2710" width="146.01" height="60" as="geometry"/>
                </mxCell>
                <mxCell id="qOevLQ6Uj-AyZu6DaQIO-55" value="End" style="rounded=1;whiteSpace=wrap;html=1;arcSize=50;strokeColor=#000000;" parent="1" vertex="1">
                    <mxGeometry x="365.5" y="2840" width="120" height="60" as="geometry"/>
                </mxCell>
            </root>
        </mxGraphModel>
    </diagram>
    <diagram id="LWgM8r2Zcgo7axIWSPat" name="max_min_age_user">
        <mxGraphModel dx="874" dy="-243" grid="1" gridSize="10" guides="1" tooltips="1" connect="1" arrows="1" fold="1" page="1" pageScale="1" pageWidth="850" pageHeight="1100" math="0" shadow="0">
            <root>
                <mxCell id="0"/>
                <mxCell id="1" parent="0"/>
                <mxCell id="vCZih5ODdmJbDgqMgcR0-7" style="edgeStyle=orthogonalEdgeStyle;rounded=0;orthogonalLoop=1;jettySize=auto;html=1;entryX=0.5;entryY=0;entryDx=0;entryDy=0;" parent="1" source="vCZih5ODdmJbDgqMgcR0-1" target="vCZih5ODdmJbDgqMgcR0-2" edge="1">
                    <mxGeometry relative="1" as="geometry"/>
                </mxCell>
                <mxCell id="vCZih5ODdmJbDgqMgcR0-1" value="max_min_age_user&lt;br&gt;( user[], count_data )" style="rounded=1;whiteSpace=wrap;html=1;arcSize=50;" parent="1" vertex="1">
                    <mxGeometry x="358.25" y="1200" width="134.5" height="60" as="geometry"/>
                </mxCell>
                <mxCell id="vCZih5ODdmJbDgqMgcR0-6" style="edgeStyle=orthogonalEdgeStyle;rounded=0;orthogonalLoop=1;jettySize=auto;html=1;entryX=0.5;entryY=0;entryDx=0;entryDy=0;" parent="1" source="vCZih5ODdmJbDgqMgcR0-2" target="vCZih5ODdmJbDgqMgcR0-4" edge="1">
                    <mxGeometry relative="1" as="geometry"/>
                </mxCell>
                <mxCell id="vCZih5ODdmJbDgqMgcR0-2" value="max_i = 0&lt;br&gt;min_i = 0" style="rounded=0;whiteSpace=wrap;html=1;" parent="1" vertex="1">
                    <mxGeometry x="365" y="1300" width="120" height="60" as="geometry"/>
                </mxCell>
                <mxCell id="vCZih5ODdmJbDgqMgcR0-12" style="edgeStyle=orthogonalEdgeStyle;rounded=0;orthogonalLoop=1;jettySize=auto;html=1;entryX=0.5;entryY=0;entryDx=0;entryDy=0;" parent="1" source="vCZih5ODdmJbDgqMgcR0-4" target="vCZih5ODdmJbDgqMgcR0-8" edge="1">
                    <mxGeometry relative="1" as="geometry"/>
                </mxCell>
                <mxCell id="vCZih5ODdmJbDgqMgcR0-4" value="check_max = 0&lt;br&gt;check_min = 99999" style="rounded=0;whiteSpace=wrap;html=1;" parent="1" vertex="1">
                    <mxGeometry x="365" y="1400" width="120" height="60" as="geometry"/>
                </mxCell>
                <mxCell id="_n71uwPkAx9y9Trk1gDX-21" style="edgeStyle=orthogonalEdgeStyle;rounded=0;orthogonalLoop=1;jettySize=auto;html=1;entryX=0.5;entryY=0;entryDx=0;entryDy=0;" parent="1" source="vCZih5ODdmJbDgqMgcR0-8" target="_n71uwPkAx9y9Trk1gDX-18" edge="1">
                    <mxGeometry relative="1" as="geometry"/>
                </mxCell>
                <mxCell id="vCZih5ODdmJbDgqMgcR0-8" value="i = 0" style="rounded=0;whiteSpace=wrap;html=1;" parent="1" vertex="1">
                    <mxGeometry x="365" y="1500" width="120" height="60" as="geometry"/>
                </mxCell>
                <mxCell id="vCZih5ODdmJbDgqMgcR0-15" value="True" style="edgeStyle=orthogonalEdgeStyle;rounded=0;orthogonalLoop=1;jettySize=auto;html=1;entryX=0.5;entryY=0;entryDx=0;entryDy=0;" parent="1" source="vCZih5ODdmJbDgqMgcR0-9" target="vCZih5ODdmJbDgqMgcR0-10" edge="1">
                    <mxGeometry relative="1" as="geometry"/>
                </mxCell>
                <mxCell id="fRcp1_gcSpHu0LnnMpMg-15" value="False" style="edgeStyle=orthogonalEdgeStyle;rounded=0;orthogonalLoop=1;jettySize=auto;html=1;entryX=0.5;entryY=0;entryDx=0;entryDy=0;" parent="1" source="vCZih5ODdmJbDgqMgcR0-9" target="_n71uwPkAx9y9Trk1gDX-23" edge="1">
                    <mxGeometry x="-0.9362" relative="1" as="geometry">
                        <mxPoint x="780" y="2280" as="targetPoint"/>
                        <Array as="points">
                            <mxPoint x="800" y="1680"/>
                            <mxPoint x="800" y="2280"/>
                            <mxPoint x="425" y="2280"/>
                        </Array>
                        <mxPoint as="offset"/>
                    </mxGeometry>
                </mxCell>
                <mxCell id="vCZih5ODdmJbDgqMgcR0-9" value="i &amp;lt; count_data ?" style="rhombus;whiteSpace=wrap;html=1;" parent="1" vertex="1">
                    <mxGeometry x="353" y="1640" width="145" height="80" as="geometry"/>
                </mxCell>
                <mxCell id="_n71uwPkAx9y9Trk1gDX-16" style="edgeStyle=orthogonalEdgeStyle;rounded=0;orthogonalLoop=1;jettySize=auto;html=1;entryX=0.5;entryY=0;entryDx=0;entryDy=0;" parent="1" source="vCZih5ODdmJbDgqMgcR0-10" target="vCZih5ODdmJbDgqMgcR0-16" edge="1">
                    <mxGeometry relative="1" as="geometry"/>
                </mxCell>
                <mxCell id="vCZih5ODdmJbDgqMgcR0-10" value="sum_age =&amp;nbsp;&lt;br&gt;user[ i ].years_old" style="rounded=0;whiteSpace=wrap;html=1;" parent="1" vertex="1">
                    <mxGeometry x="365" y="1760" width="120" height="60" as="geometry"/>
                </mxCell>
                <mxCell id="vCZih5ODdmJbDgqMgcR0-18" value="True" style="edgeStyle=orthogonalEdgeStyle;rounded=0;orthogonalLoop=1;jettySize=auto;html=1;entryX=0.5;entryY=0;entryDx=0;entryDy=0;" parent="1" source="vCZih5ODdmJbDgqMgcR0-16" target="vCZih5ODdmJbDgqMgcR0-17" edge="1">
                    <mxGeometry relative="1" as="geometry"/>
                </mxCell>
                <mxCell id="vCZih5ODdmJbDgqMgcR0-22" value="False" style="edgeStyle=orthogonalEdgeStyle;rounded=0;orthogonalLoop=1;jettySize=auto;html=1;entryX=0.5;entryY=0;entryDx=0;entryDy=0;" parent="1" source="vCZih5ODdmJbDgqMgcR0-16" target="vCZih5ODdmJbDgqMgcR0-20" edge="1">
                    <mxGeometry x="-0.6201" relative="1" as="geometry">
                        <mxPoint x="1" as="offset"/>
                    </mxGeometry>
                </mxCell>
                <mxCell id="vCZih5ODdmJbDgqMgcR0-16" value="sum_age &amp;gt; check_max ?" style="rhombus;whiteSpace=wrap;html=1;" parent="1" vertex="1">
                    <mxGeometry x="329" y="1860" width="191.5" height="80" as="geometry"/>
                </mxCell>
                <mxCell id="_n71uwPkAx9y9Trk1gDX-10" style="edgeStyle=orthogonalEdgeStyle;rounded=0;orthogonalLoop=1;jettySize=auto;html=1;" parent="1" source="vCZih5ODdmJbDgqMgcR0-17" target="_n71uwPkAx9y9Trk1gDX-8" edge="1">
                    <mxGeometry relative="1" as="geometry"/>
                </mxCell>
                <mxCell id="vCZih5ODdmJbDgqMgcR0-17" value="max_i = i&lt;br&gt;check_max = sum_age" style="rounded=0;whiteSpace=wrap;html=1;" parent="1" vertex="1">
                    <mxGeometry x="348" y="1980" width="155" height="60" as="geometry"/>
                </mxCell>
                <mxCell id="vCZih5ODdmJbDgqMgcR0-19" value="True" style="edgeStyle=orthogonalEdgeStyle;rounded=0;orthogonalLoop=1;jettySize=auto;html=1;entryX=0.5;entryY=0;entryDx=0;entryDy=0;" parent="1" source="vCZih5ODdmJbDgqMgcR0-20" target="vCZih5ODdmJbDgqMgcR0-21" edge="1">
                    <mxGeometry relative="1" as="geometry"/>
                </mxCell>
                <mxCell id="_n71uwPkAx9y9Trk1gDX-3" value="False" style="edgeStyle=orthogonalEdgeStyle;rounded=0;orthogonalLoop=1;jettySize=auto;html=1;entryX=1;entryY=0.5;entryDx=0;entryDy=0;" parent="1" source="vCZih5ODdmJbDgqMgcR0-20" target="_n71uwPkAx9y9Trk1gDX-1" edge="1">
                    <mxGeometry x="-0.8862" relative="1" as="geometry">
                        <mxPoint x="645.75" y="2180" as="targetPoint"/>
                        <Array as="points">
                            <mxPoint x="760" y="1980"/>
                            <mxPoint x="760" y="2163"/>
                        </Array>
                        <mxPoint x="1" as="offset"/>
                    </mxGeometry>
                </mxCell>
                <mxCell id="vCZih5ODdmJbDgqMgcR0-20" value="sum_age &amp;lt; check_min ?" style="rhombus;whiteSpace=wrap;html=1;" parent="1" vertex="1">
                    <mxGeometry x="540" y="1940" width="191.5" height="80" as="geometry"/>
                </mxCell>
                <mxCell id="_n71uwPkAx9y9Trk1gDX-9" style="edgeStyle=orthogonalEdgeStyle;rounded=0;orthogonalLoop=1;jettySize=auto;html=1;entryX=0.5;entryY=0;entryDx=0;entryDy=0;" parent="1" source="vCZih5ODdmJbDgqMgcR0-21" target="_n71uwPkAx9y9Trk1gDX-1" edge="1">
                    <mxGeometry relative="1" as="geometry"/>
                </mxCell>
                <mxCell id="vCZih5ODdmJbDgqMgcR0-21" value="min_i = i&lt;br&gt;check_min = sum_age" style="rounded=0;whiteSpace=wrap;html=1;" parent="1" vertex="1">
                    <mxGeometry x="559" y="2060" width="155" height="60" as="geometry"/>
                </mxCell>
                <mxCell id="_n71uwPkAx9y9Trk1gDX-11" style="edgeStyle=orthogonalEdgeStyle;rounded=0;orthogonalLoop=1;jettySize=auto;html=1;entryX=1;entryY=0.5;entryDx=0;entryDy=0;" parent="1" source="_n71uwPkAx9y9Trk1gDX-1" target="_n71uwPkAx9y9Trk1gDX-8" edge="1">
                    <mxGeometry relative="1" as="geometry"/>
                </mxCell>
                <mxCell id="_n71uwPkAx9y9Trk1gDX-1" value="" style="ellipse;whiteSpace=wrap;html=1;aspect=fixed;" parent="1" vertex="1">
                    <mxGeometry x="626.5" y="2153" width="20" height="20" as="geometry"/>
                </mxCell>
                <mxCell id="_n71uwPkAx9y9Trk1gDX-13" style="edgeStyle=orthogonalEdgeStyle;rounded=0;orthogonalLoop=1;jettySize=auto;html=1;" parent="1" source="_n71uwPkAx9y9Trk1gDX-8" target="_n71uwPkAx9y9Trk1gDX-12" edge="1">
                    <mxGeometry relative="1" as="geometry"/>
                </mxCell>
                <mxCell id="_n71uwPkAx9y9Trk1gDX-8" value="" style="ellipse;whiteSpace=wrap;html=1;aspect=fixed;" parent="1" vertex="1">
                    <mxGeometry x="414.75" y="2153" width="20" height="20" as="geometry"/>
                </mxCell>
                <mxCell id="_n71uwPkAx9y9Trk1gDX-17" style="edgeStyle=orthogonalEdgeStyle;rounded=0;orthogonalLoop=1;jettySize=auto;html=1;entryX=0;entryY=0.5;entryDx=0;entryDy=0;" parent="1" source="_n71uwPkAx9y9Trk1gDX-12" target="_n71uwPkAx9y9Trk1gDX-18" edge="1">
                    <mxGeometry relative="1" as="geometry">
                        <mxPoint x="250" y="1600" as="targetPoint"/>
                        <Array as="points">
                            <mxPoint x="240" y="2232"/>
                            <mxPoint x="240" y="1600"/>
                        </Array>
                    </mxGeometry>
                </mxCell>
                <mxCell id="_n71uwPkAx9y9Trk1gDX-12" value="i = i + 1" style="rounded=0;whiteSpace=wrap;html=1;" parent="1" vertex="1">
                    <mxGeometry x="364.75" y="2202" width="120" height="60" as="geometry"/>
                </mxCell>
                <mxCell id="_n71uwPkAx9y9Trk1gDX-22" style="edgeStyle=orthogonalEdgeStyle;rounded=0;orthogonalLoop=1;jettySize=auto;html=1;entryX=0.5;entryY=0;entryDx=0;entryDy=0;" parent="1" source="_n71uwPkAx9y9Trk1gDX-18" target="vCZih5ODdmJbDgqMgcR0-9" edge="1">
                    <mxGeometry relative="1" as="geometry"/>
                </mxCell>
                <mxCell id="_n71uwPkAx9y9Trk1gDX-18" value="" style="ellipse;whiteSpace=wrap;html=1;aspect=fixed;" parent="1" vertex="1">
                    <mxGeometry x="414.75" y="1590" width="20" height="20" as="geometry"/>
                </mxCell>
                <mxCell id="fRcp1_gcSpHu0LnnMpMg-2" style="edgeStyle=orthogonalEdgeStyle;rounded=0;orthogonalLoop=1;jettySize=auto;html=1;entryX=0.5;entryY=0;entryDx=0;entryDy=0;" parent="1" source="_n71uwPkAx9y9Trk1gDX-23" target="_n71uwPkAx9y9Trk1gDX-25" edge="1">
                    <mxGeometry relative="1" as="geometry"/>
                </mxCell>
                <mxCell id="_n71uwPkAx9y9Trk1gDX-23" value="show &quot;user[ max_i ].name&quot;" style="shape=parallelogram;perimeter=parallelogramPerimeter;whiteSpace=wrap;html=1;fixedSize=1;" parent="1" vertex="1">
                    <mxGeometry x="329" y="2320" width="193.87" height="60" as="geometry"/>
                </mxCell>
                <mxCell id="fRcp1_gcSpHu0LnnMpMg-3" style="edgeStyle=orthogonalEdgeStyle;rounded=0;orthogonalLoop=1;jettySize=auto;html=1;entryX=0.5;entryY=0;entryDx=0;entryDy=0;" parent="1" source="_n71uwPkAx9y9Trk1gDX-25" target="_n71uwPkAx9y9Trk1gDX-26" edge="1">
                    <mxGeometry relative="1" as="geometry"/>
                </mxCell>
                <mxCell id="_n71uwPkAx9y9Trk1gDX-25" value="show &quot;user[ max_i ].years_old&quot;" style="shape=parallelogram;perimeter=parallelogramPerimeter;whiteSpace=wrap;html=1;fixedSize=1;" parent="1" vertex="1">
                    <mxGeometry x="328.75" y="2400" width="191.25" height="60" as="geometry"/>
                </mxCell>
                <mxCell id="fRcp1_gcSpHu0LnnMpMg-9" style="edgeStyle=orthogonalEdgeStyle;rounded=0;orthogonalLoop=1;jettySize=auto;html=1;entryX=0.5;entryY=0;entryDx=0;entryDy=0;" parent="1" source="_n71uwPkAx9y9Trk1gDX-26" target="_n71uwPkAx9y9Trk1gDX-27" edge="1">
                    <mxGeometry relative="1" as="geometry"/>
                </mxCell>
                <mxCell id="_n71uwPkAx9y9Trk1gDX-26" value="show &quot;user[ max_i ].month&quot;" style="shape=parallelogram;perimeter=parallelogramPerimeter;whiteSpace=wrap;html=1;fixedSize=1;" parent="1" vertex="1">
                    <mxGeometry x="328.75" y="2480" width="191.25" height="60" as="geometry"/>
                </mxCell>
                <mxCell id="fRcp1_gcSpHu0LnnMpMg-10" style="edgeStyle=orthogonalEdgeStyle;rounded=0;orthogonalLoop=1;jettySize=auto;html=1;entryX=0.5;entryY=0;entryDx=0;entryDy=0;" parent="1" source="_n71uwPkAx9y9Trk1gDX-27" target="_n71uwPkAx9y9Trk1gDX-28" edge="1">
                    <mxGeometry relative="1" as="geometry"/>
                </mxCell>
                <mxCell id="_n71uwPkAx9y9Trk1gDX-27" value="show &quot;user[ min_i ].name&quot;" style="shape=parallelogram;perimeter=parallelogramPerimeter;whiteSpace=wrap;html=1;fixedSize=1;" parent="1" vertex="1">
                    <mxGeometry x="329" y="2560" width="191" height="60" as="geometry"/>
                </mxCell>
                <mxCell id="fRcp1_gcSpHu0LnnMpMg-12" style="edgeStyle=orthogonalEdgeStyle;rounded=0;orthogonalLoop=1;jettySize=auto;html=1;entryX=0.5;entryY=0;entryDx=0;entryDy=0;" parent="1" source="_n71uwPkAx9y9Trk1gDX-28" target="_n71uwPkAx9y9Trk1gDX-29" edge="1">
                    <mxGeometry relative="1" as="geometry"/>
                </mxCell>
                <mxCell id="_n71uwPkAx9y9Trk1gDX-28" value="show &quot;user[ min_i ].years_old&quot;" style="shape=parallelogram;perimeter=parallelogramPerimeter;whiteSpace=wrap;html=1;fixedSize=1;" parent="1" vertex="1">
                    <mxGeometry x="329" y="2640" width="191" height="60" as="geometry"/>
                </mxCell>
                <mxCell id="fRcp1_gcSpHu0LnnMpMg-14" style="edgeStyle=orthogonalEdgeStyle;rounded=0;orthogonalLoop=1;jettySize=auto;html=1;entryX=0.5;entryY=0;entryDx=0;entryDy=0;" parent="1" source="_n71uwPkAx9y9Trk1gDX-29" target="fRcp1_gcSpHu0LnnMpMg-1" edge="1">
                    <mxGeometry relative="1" as="geometry"/>
                </mxCell>
                <mxCell id="_n71uwPkAx9y9Trk1gDX-29" value="show &quot;user[ min_i ].month&quot;" style="shape=parallelogram;perimeter=parallelogramPerimeter;whiteSpace=wrap;html=1;fixedSize=1;" parent="1" vertex="1">
                    <mxGeometry x="332" y="2720" width="186" height="60" as="geometry"/>
                </mxCell>
                <mxCell id="fRcp1_gcSpHu0LnnMpMg-1" value="End" style="rounded=1;whiteSpace=wrap;html=1;arcSize=50;" parent="1" vertex="1">
                    <mxGeometry x="365.5" y="2810" width="120" height="60" as="geometry"/>
                </mxCell>
            </root>
        </mxGraphModel>
    </diagram>
</mxfile>